{"title":"Singh Is Bliing (2015) Hindi - Untouched - DVDSCR - PAL - M2Tv E","uid":12518717,"size":1453633330,"categoryP":"video","categoryS":"movies_dvdr","magnet":"?xt=urn:btih:73b8a8af174cfc46ec9f268be6f659e07afd809d&amp;dn=Singh+Is+Bliing+%282015%29+Hindi+-+Untouched+-+DVDSCR+-+PAL+-+M2Tv+E&amp;tr=udp%3A%2F%2Ftracker.leechers-paradise.org%3A6969&amp;tr=udp%3A%2F%2Fzer0day.ch%3A1337&amp;tr=udp%3A%2F%2Fopen.demonii.com%3A1337&amp;tr=udp%3A%2F%2Ftracker.coppersurfer.tk%3A6969&amp;tr=udp%3A%2F%2Fexodus.desync.com%3A6969","seeders":1,"leechers":0,"uploader":"desi11","files":8,"time":1443813220,"description":"Screens\r\n \nhttps://www.picbee.pw/image/B3 \nhttps://www.picbee.pw/image/B6 \nhttps://www.picbee.pw/image/BD \nhttps://www.picbee.pw/image/BJ \nhttps://www.picbee.pw/image/BM \nhttps://www.picbee.pw/image/Be\r\n\r\nINFO\r\n\r\n\r\nFormat : MPEG-PS\r\nFile size : 1 024 MiB\r\nDuration : 1h 40mn\r\nOverall bit rate mode : Variable\r\nOverall bit rate : 1 420 Kbps\r\n\r\nVideo\r\nID : 224 (0xE0)\r\nFormat : MPEG Video\r\nFormat version : Version 2\r\nFormat profile :   \r\nFormat settings, BVOP : Yes\r\nFormat settings, Matrix : Custom\r\nFormat settings, GOP : Variable\r\nDuration : 1h 40mn\r\nBit rate mode : Variable\r\nBit rate : 1 296 Kbps\r\nMaximum bit rate : 8 000 Kbps\r\nWidth : 704 pixels\r\nHeight : 576 pixels\r\nDisplay aspect ratio : 1.738\r\nFrame rate : 25.000 fps\r\nStandard : PAL\r\nColor space : YUV\r\nChroma subsampling : 4:2:0\r\nBit depth : 8 bits\r\nScan type : Progressive\r\nCompression mode : Lossy\r\nBits/(Pixel*Frame) : 0.128\r\nTime code of first frame : 00:00:00:00\r\nTime code source : Group of pictures header\r\nGOP, Open/Closed : Open\r\nGOP, Open/Closed of first frame : Closed\r\nStream size : 934 MiB (91%)\r\nColor primaries : BT.601 PAL\r\nTransfer characteristics : BT.470 System B, BT.470 System G\r\nMatrix coefficients : BT.601\r\n\r\nAudio\r\nID : 192 (0xC0)\r\nFormat : MPEG Audio\r\nFormat version : Version 1\r\nFormat profile : Layer 2\r\nDuration : 1h 40mn\r\nBit rate mode : Constant\r\nBit rate : 96.0 Kbps\r\nChannel(s) : 2 channels\r\nSampling rate : 48.0 KHz\r\nCompression mode : Lossy\r\nStream size : 69.2 MiB (7%)","torrent":{"xt":"urn:btih:73b8a8af174cfc46ec9f268be6f659e07afd809d","amp;dn":"Singh+Is+Bliing+%282015%29+Hindi+-+Untouched+-+DVDSCR+-+PAL+-+M2Tv+E","amp;tr":["udp%3A%2F%2Ftracker.leechers-paradise.org%3A6969","udp%3A%2F%2Fzer0day.ch%3A1337","udp%3A%2F%2Fopen.demonii.com%3A1337","udp%3A%2F%2Ftracker.coppersurfer.tk%3A6969","udp%3A%2F%2Fexodus.desync.com%3A6969"],"infoHash":"73b8a8af174cfc46ec9f268be6f659e07afd809d","infoHashBuffer":{"type":"Buffer","data":[115,184,168,175,23,76,252,70,236,159,38,139,230,246,89,224,122,253,128,157]},"announce":[],"urlList":[]}}